<svg xmlns="http://www.w3.org/2000/svg" width="4088.995" height="1794.006" viewBox="0 0 1081.88 474.664" xmlns:v="https://vecta.io/nano"><path d="M515.824 474.591c-14.003-.347-19.385-1.491-29.104-6.19-4.677-2.261-6.957-3.842-12.112-8.396-5.939-5.247-6.811-6.325-15.095-18.653-5.336-7.941-7.026-10.955-9.914-17.687-2.038-4.749-2.958-7.74-4.306-13.998-2.406-11.169-3.907-21.58-4.862-33.734l-1.128-14.023c-.396-4.759-.473-8.672-.468-23.945.005-16.669.068-19.36.737-30.956l1.112-17.463 2.508-28.575c1.035-10.871 1.162-13.132.811-14.401-.438-1.583-1.541-2.559-3.308-2.926-1.07-.222-9.241-.16-32.997.249l-71.13 1.193-43.921.79-12.7.282-40.31.922c-4.934.777-6.232 3.156-6.644 12.171-.282 6.17-.423 7.794-1.612 18.521-2.247 20.272-2.521 21.874-4.766 27.835-1.433 3.805-2.903 6.629-4.538 8.718-1.249 1.596-8.45 8.341-10.903 10.212-2.03 1.548-3.943 2.233-6.237 2.233-2.811 0-4.619-.785-6.767-2.937-2.607-2.612-4.188-5.582-6.845-12.856-.897-2.455-1.9-4.101-2.499-4.101-.67 0-1.284 1.067-2.568 4.464-1.469 3.887-2.299 6.926-3.154 11.543-.323 1.746-.875 3.949-1.225 4.895-1.816 4.902-6.446 8.706-12.09 9.932-7.508 1.631-16.905-1.877-21.18-7.907-1.566-2.209-2.201-3.53-4.958-10.317-3.445-8.481-4.643-10.549-5.844-10.088-.789.303-1.271 1.768-2.345 7.127-.921 4.596-1.714 7.042-2.866 8.837-3.114 4.853-10.03 8.263-17.617 8.685-3.174.177-5.75-.187-8.994-1.268-5.849-1.951-10.18-5.994-13.433-12.542-1.513-3.045-2.319-5.792-2.862-9.756-1.015-7.4-1.531-9.418-2.505-9.791-.683-.262-1.142.123-4.107 3.447-3.137 3.516-7.996 8.033-10.255 9.533-3.59 2.383-7.261 3.016-11.43 1.972-6.518-1.633-10.176-5.188-13.211-12.838-.93-2.345-1.952-6.245-2.364-9.024-.298-2.013-1.744-16.335-2.016-19.976-.346-4.63-1.193-12.338-1.46-13.287-.533-1.896-1.979-3.113-4.321-3.638-2.225-.499-15.571-1.607-22.525-1.871-9.362-.355-11.046-.709-13.382-2.815-2.188-1.973-2.721-4.814-1.399-7.465.793-1.591 2.059-2.628 4.292-3.513 1.47-.583 1.749-.595 17.633-.77 11.481-.126 16.445-.271 17.198-.5 2.647-.807 3.533-1.935 4.887-6.224 1.268-4.015 2.38-6.122 4.153-7.87 2.043-2.014 2.004-1.989 14.084-8.996 11.147-6.467 14.099-8.048 16.915-9.064 3.949-1.424 16.401-4.61 21.079-5.394 3.302-.553 21.761-2.889 28.443-3.599 4.628-.492 23.443-1.037 28.972-.839 5.747.205 19.597 2.277 26.194 3.919 8.052 2.003 13.092 3.662 18.785 6.18 8.005 3.541 10.232 4.961 14.158 9.029 2.951 3.057 4.608 5.339 6.218 8.566 2.434 4.879 4.274 6.555 7.825 7.127 3.867.623 30.434-1.538 36.225-2.947 2.612-.635 4.258-1.979 4.73-3.861.135-.539.311-3.123.391-5.743.25-8.184.63-10.317 4.922-27.649l4.51-18.918c1.057-4.657 2.335-9.771 2.839-11.365s3.274-8.798 6.154-16.007l10.063-25.412c5.369-13.687 5.938-14.925 10.168-22.093l4.386-7.541c7.081-12.534 7.15-12.634 15.099-21.828 3.917-4.53 5.915-6.552 12.942-13.093 2.108-1.962 5.67-5.452 7.915-7.754 4.099-4.204 6.766-6.478 10.205-8.704 8.931-5.78 20.103-12.592 23.813-14.519 3.223-1.675 15.755-7.139 23.024-10.039 6.099-2.433 24.782-8.203 29.893-9.232 3.212-.647 19.265-3.019 24.209-3.579C477 .915 497.731-.254 506.431.048c6.829.237 17.036 1.6 25.4 3.392 5.966 1.278 9.511 1.952 12.303 2.338 5.918.818 8.415 1.549 16.272 4.763 3.129 1.28 8.487 3.31 11.906 4.511 7.871 2.765 9.931 3.68 18.239 8.101l9.278 4.924c5.956 3.138 7.132 3.806 9.297 5.275 1.257.853 3.459 2.566 4.895 3.806 4.351 3.76 7.71 6.483 11.738 9.513 6.759 5.085 11.304 8.908 17.33 14.576 9.508 8.942 13.574 13.538 22.208 25.1 6.823 9.138 7.538 10.172 11.973 17.33 6.869 11.087 8.078 13.16 14.573 25.003 2.355 4.294 11.173 21.838 11.173 22.23 0 .042.464 1.07 1.031 2.284 1.512 3.239 4.23 10.359 11.857 31.048 4.119 11.174 3.985 10.784 7.521 21.828 1.636 5.11 3.342 9.929 3.876 10.948 1.157 2.209 2.66 3.416 4.786 3.843 1.97.396 36.254.399 39.095.004 2.515-.35 4.916-1.414 6.285-2.785.957-.959 1.471-1.908 3.966-7.334 2.29-4.978 5.693-9.082 10.352-12.483 6.621-4.833 12.577-7.471 25.032-11.087 11.53-3.347 18.991-5.101 23.651-5.559 2.658-.261 13.756-1.165 18.389-1.497 3.91-.28 16.123-.193 20.505.147.728.056 3.585.173 6.35.259 11.877.369 24.061 1.216 30.956 2.151 5.36.727 13.712 2.995 17.595 4.778 1.091.501 4.008 2.022 6.482 3.38l8.11 4.375c5.813 3.068 6.777 4.022 12.509 12.372 3.33 4.851 4.333 5.967 6.18 6.874l1.512.742h12.7l53.446-.132 40.746-.132 1.588.631c4.552 1.81 5.764 6.575 2.505 9.848-1.462 1.469-3.292 2.216-6.382 2.604-1.394.175-19.859.375-50.098.541l-48.948.559c-3.512.983-4.043 2.937-2.87 10.555.716 4.65.753 5.332.747 13.626-.007 9.27-.22 12.117-1.345 17.992-1.35 7.049-2.815 11.165-5.64 15.843-2.563 4.242-5.434 6.379-10.182 7.575-7.679 1.935-14.732-1.556-21.653-10.718-1.319-1.746-2.7-3.502-3.068-3.903-1.83-1.989-2.608-.12-3.222 7.739-.349 4.47-.641 6.38-1.439 9.404-1.184 4.491-3.132 7.868-6.49 11.251-4.043 4.073-8.24 6.054-12.846 6.064-4.534.01-7.935-1.755-13.183-6.843-4.12-3.994-5.825-6.59-8.247-12.563-.766-1.888-1.537-2.865-2.093-2.652-.542.208-1.11 1.693-2.122 5.549-3.235 12.327-6.131 18.422-10.814 22.758-7.925 7.337-20.85 5.08-28.483-4.974-2.982-3.928-5.107-8.446-7.121-15.139-1.15-3.821-1.81-5.371-2.552-5.986-.396-.328-.521-.28-1.08.415-.348.432-.857 1.381-1.131 2.109-2.31 6.126-5.174 9.692-9.45 11.765-2.17 1.052-3.741 1.384-6.584 1.388-2.948.005-5.148-.547-7.937-1.993-3.508-1.818-8.868-7.498-12.105-12.825-3.082-5.073-7.77-16.416-9.346-22.612-1.575-6.191-3.52-16.93-4.996-27.582-1.007-7.263-1.576-8.621-4.006-9.549-1.523-.582.854-.613-91.52 1.211l-31.089.656-11.774.277-46.17 1.043-13.361.297c-12.503.233-14.219.489-15.595 2.333-.947 1.269-.762 3.874.558 7.834 1.147 3.441 1.631 6.115 2.324 12.834.398 3.852 1.694 11.572 3.353 19.975l10.187 49.08c4.237 20.317 4.436 21.407 4.988 27.252l.932 8.996c.99 8.773 2.382 30.963 2.382 37.963 0 8.087-1.336 14.607-5.137 25.077-2.468 6.797-4.166 10.69-6.283 14.403-6.221 10.908-10.151 14.929-20.413 20.886-9.081 5.271-10.534 5.756-22.935 7.644-6.55.997-11.234 1.236-19.976 1.02z" fill="#fff"/><path d="M515.824 474.591c-14.003-.347-19.385-1.491-29.104-6.19-4.677-2.261-6.957-3.842-12.112-8.396-5.939-5.247-6.811-6.325-15.095-18.653-5.336-7.941-7.026-10.955-9.914-17.687-2.037-4.749-2.957-7.74-4.306-13.998-2.406-11.169-3.907-21.58-4.862-33.734l-1.128-14.023c-.396-4.759-.473-8.672-.468-23.945.005-16.669.068-19.36.737-30.956l1.112-17.463 2.508-28.575c1.035-10.871 1.162-13.132.811-14.401-.438-1.583-1.541-2.559-3.308-2.926-1.07-.222-9.241-.16-32.997.249l-71.13 1.193-43.921.79-12.7.282-40.31.922c-4.934.777-6.232 3.156-6.644 12.171-.282 6.17-.423 7.794-1.612 18.521-2.247 20.272-2.521 21.874-4.766 27.835-1.433 3.805-2.903 6.629-4.538 8.718-1.249 1.596-8.45 8.341-10.903 10.212-2.03 1.548-3.943 2.233-6.237 2.233-2.811 0-4.619-.785-6.767-2.937-2.607-2.612-4.188-5.582-6.845-12.856-.897-2.455-1.9-4.101-2.499-4.101-.67 0-1.284 1.067-2.568 4.464-1.469 3.887-2.299 6.926-3.154 11.543-.323 1.746-.875 3.949-1.225 4.895-1.816 4.902-6.446 8.706-12.09 9.932-7.508 1.631-16.905-1.877-21.18-7.907-1.566-2.209-2.201-3.53-4.958-10.317-3.445-8.481-4.643-10.549-5.844-10.088-.789.303-1.271 1.768-2.345 7.127-.921 4.596-1.714 7.042-2.866 8.837-3.114 4.853-10.03 8.263-17.617 8.685-3.174.177-5.75-.187-8.994-1.268-5.849-1.951-10.18-5.994-13.433-12.542-1.513-3.045-2.319-5.792-2.862-9.756-1.015-7.4-1.531-9.418-2.505-9.791-.683-.262-1.142.123-4.107 3.447-3.137 3.516-7.996 8.033-10.255 9.533-3.59 2.383-7.261 3.016-11.43 1.972-6.518-1.633-10.176-5.188-13.211-12.838-.93-2.345-1.952-6.245-2.364-9.024-.298-2.013-1.744-16.335-2.016-19.976-.346-4.63-1.193-12.338-1.46-13.287-.533-1.896-1.979-3.113-4.321-3.638-2.225-.499-15.571-1.607-22.525-1.871-9.362-.355-11.046-.709-13.382-2.815-2.188-1.973-2.721-4.814-1.399-7.465.793-1.591 2.059-2.628 4.292-3.513 1.47-.583 1.749-.595 17.633-.77 11.481-.126 16.445-.271 17.198-.5 2.647-.807 3.533-1.935 4.887-6.224 1.268-4.015 2.38-6.122 4.153-7.87 2.043-2.014 2.004-1.989 14.084-8.996 11.147-6.467 14.099-8.048 16.915-9.064 3.949-1.424 16.401-4.61 21.079-5.394 3.302-.553 21.761-2.889 28.443-3.599 4.628-.492 23.443-1.037 28.972-.839 5.747.205 19.597 2.277 26.194 3.919 8.052 2.003 13.092 3.662 18.785 6.18 8.005 3.541 10.232 4.961 14.158 9.029 2.951 3.057 4.608 5.339 6.218 8.566 2.434 4.879 4.274 6.555 7.825 7.127 3.867.623 30.434-1.538 36.225-2.947 2.612-.635 4.258-1.979 4.73-3.861.135-.539.311-3.123.391-5.743.25-8.184.63-10.317 4.922-27.649l4.51-18.918c1.057-4.657 2.335-9.771 2.839-11.365s3.274-8.798 6.154-16.007l10.063-25.412c5.369-13.687 5.938-14.925 10.168-22.093l4.386-7.541c7.081-12.534 7.15-12.634 15.099-21.828 3.917-4.53 5.915-6.552 12.942-13.093 2.108-1.962 5.67-5.452 7.915-7.754 4.099-4.204 6.766-6.478 10.205-8.704 8.931-5.78 20.103-12.592 23.813-14.519 3.223-1.675 15.755-7.139 23.024-10.039 6.099-2.433 24.782-8.203 29.893-9.232 3.212-.647 19.265-3.019 24.209-3.579C477 .915 497.731-.254 506.431.048c6.829.237 17.036 1.6 25.4 3.392 5.966 1.278 9.511 1.952 12.303 2.338 5.918.818 8.415 1.549 16.272 4.763 3.129 1.28 8.487 3.31 11.906 4.511 7.871 2.765 9.931 3.68 18.239 8.101l9.278 4.924c5.956 3.138 7.132 3.806 9.297 5.275 1.257.853 3.459 2.566 4.895 3.806 4.351 3.76 7.71 6.483 11.738 9.513 6.759 5.085 11.304 8.908 17.33 14.576 9.508 8.942 13.574 13.538 22.208 25.1 6.823 9.138 7.538 10.172 11.973 17.33 6.869 11.087 8.078 13.16 14.573 25.003 2.355 4.294 11.173 21.838 11.173 22.23 0 .042.464 1.07 1.031 2.284 1.512 3.239 4.23 10.359 11.857 31.048 4.119 11.174 3.985 10.784 7.521 21.828 1.636 5.11 3.342 9.929 3.876 10.948 1.157 2.209 2.66 3.416 4.786 3.843 1.97.396 36.254.399 39.095.004 2.515-.35 4.916-1.414 6.285-2.785.957-.959 1.47-1.908 3.966-7.334 2.29-4.978 5.693-9.082 10.352-12.483 6.621-4.833 12.577-7.471 25.032-11.087 11.53-3.347 18.991-5.101 23.651-5.559 2.658-.261 13.757-1.165 18.389-1.497 3.91-.28 16.123-.193 20.505.147.728.056 3.585.173 6.35.259 11.877.369 24.061 1.216 30.956 2.151 5.36.727 13.712 2.995 17.595 4.778 1.091.501 4.008 2.022 6.482 3.38l8.11 4.375c5.813 3.068 6.777 4.022 12.509 12.372 3.33 4.851 4.333 5.967 6.18 6.874l1.512.742h12.7l53.446-.132 40.746-.132 1.588.631c4.552 1.81 5.764 6.575 2.505 9.848-1.463 1.469-3.292 2.216-6.382 2.604-1.394.175-19.859.375-50.098.541l-48.948.559c-3.512.983-4.043 2.937-2.87 10.555.716 4.65.753 5.332.747 13.626-.007 9.27-.22 12.117-1.345 17.992-1.35 7.049-2.815 11.165-5.64 15.843-2.563 4.242-5.434 6.379-10.182 7.575-7.679 1.935-14.732-1.556-21.653-10.718-1.319-1.746-2.7-3.502-3.068-3.903-1.83-1.989-2.608-.12-3.222 7.739-.349 4.47-.641 6.38-1.439 9.404-1.184 4.491-3.132 7.868-6.49 11.251-4.043 4.073-8.24 6.054-12.846 6.064-4.534.01-7.935-1.755-13.183-6.843-4.12-3.994-5.825-6.59-8.248-12.563-.766-1.888-1.537-2.865-2.093-2.652-.542.208-1.11 1.693-2.122 5.549-3.235 12.327-6.131 18.422-10.814 22.758-7.925 7.337-20.85 5.08-28.483-4.974-2.982-3.928-5.107-8.446-7.121-15.139-1.15-3.821-1.81-5.371-2.552-5.986-.396-.328-.521-.28-1.08.415-.348.432-.857 1.381-1.131 2.109-2.31 6.126-5.174 9.692-9.45 11.765-2.17 1.052-3.741 1.384-6.584 1.388-2.948.005-5.148-.547-7.937-1.993-3.508-1.818-8.868-7.498-12.105-12.825-3.082-5.073-7.77-16.416-9.346-22.612-1.575-6.191-3.52-16.93-4.996-27.582-1.007-7.263-1.576-8.621-4.006-9.549-1.523-.582.854-.613-91.52 1.211l-31.089.656-11.774.277-46.17 1.043-13.361.297c-12.503.233-14.219.489-15.595 2.333-.947 1.269-.762 3.874.558 7.834 1.147 3.441 1.631 6.115 2.324 12.834.398 3.852 1.694 11.572 3.353 19.975l10.187 49.08c4.237 20.317 4.436 21.407 4.988 27.252l.932 8.996c.99 8.773 2.382 30.963 2.382 37.963 0 8.087-1.336 14.607-5.137 25.077-2.468 6.797-4.166 10.69-6.283 14.403-6.221 10.908-10.151 14.929-20.413 20.886-9.081 5.271-10.534 5.756-22.935 7.644-6.55.997-11.234 1.236-19.976 1.02zm14.208-15.81c14.652-2.387 22.158-5.379 29.271-11.667 2.846-2.516 4.614-4.835 6.312-8.276 3.092-6.27 5.014-12.093 8.755-26.525l.96-3.704-.016-6.218c-.009-3.42-.163-7.944-.343-10.054-.286-3.356-4.599-33.803-6.915-48.816-.449-2.91-3.908-20.651-7.688-39.423l-20.102-98.557c-3.795-18.036-4.036-19.356-4.037-22.093 0-2.169.113-3.161.446-3.893 1.183-2.601 3.625-4.07 6.397-3.847 3.941.316 6.786 3.192 8.588 8.681.618 1.884.991 3.738 3.323 16.552l2.231 11.408c.752 2.946 2.312 7.364 3.141 8.896.863 1.595 2.599 3.153 3.969 3.564s7.348.395 28.362-.076l23.548-.528 12.435-.273 12.303-.265 12.568-.272 11.774-.27 24.209-.523 19.812-.544c1.689-.228 2.333-.602 2.826-1.641.649-1.367.348-2.453-3.461-12.514l-3.682-9.771a1249.6 1249.6 0 0 0-3.058-8.07l-3.449-9.128c-1.615-4.427-6.123-15.592-8.065-19.976-.193-.437-1.152-2.699-2.131-5.027-2.148-5.111-4.266-9.38-11.027-22.228-5.652-10.74-11.065-20.581-13.288-24.156-1.381-2.221-3.723-5.24-10.735-13.841-3.44-4.219-6.759-8.433-14.458-18.356-2.612-3.367-5.506-6.771-6.864-8.074-2.362-2.267-13.413-11.264-18.091-14.729-2.962-2.194-13.603-8.999-18.109-11.581-5.741-3.29-27.305-13.491-36.414-17.226-4.157-1.704-14.612-4.337-28.292-7.124-7.68-1.564-10.722-2.046-19.579-3.1-6.899-.821-7.722-.864-15.875-.837-4.729.016-10.921.164-13.758.33-7.15.418-23.841 2.053-27.517 2.695-3.665.64-21.724 5.204-25.781 6.515-4.362 1.41-16.467 6.507-21.712 9.142-4.754 2.389-16.007 8.499-19.316 10.489-5.059 3.042-13.965 9.286-20.372 14.281-8.66 6.753-8.364 6.445-18.967 19.749l-10.952 13.626c-5.514 6.792-8.07 10.29-11.211 15.346-2.891 4.654-2.94 4.761-8.825 19.315-8.28 20.478-8.423 20.875-11.959 33.205-1.795 6.258-4.23 14.273-5.41 17.812-2.489 7.46-2.973 9.371-3.694 14.6l-1.351 9.79c-.452 3.274-1.468 9.882-2.259 14.684-1.593 9.68-1.776 12.463-.939 14.306.618 1.361 2.057 2.555 3.818 3.168 2.12.738 10.89.777 30.871.139l94.853-2.923c12.894-.382 15.006-.502 16.476-.938 2.717-.807 3.684-2.284 4.047-6.178.13-1.401.424-10.048.653-19.216l.663-18.435c.719-5.141 3.566-8.156 7.701-8.156 3.209 0 6.096 2.525 7.363 6.44.661 2.042.721 5.672.373 22.532-.612 29.644-.855 36.376-1.818 50.403l-3.177 53.181-.528 21.62c-.526 21.053-.189 30.185 1.734 47.04 1.719 15.061 2.025 16.906 4.482 27.017 2.244 9.234 5.797 18.184 9.901 24.943 3.882 6.393 5.425 8.159 12.179 13.938 5.678 4.857 8.321 6.941 10.198 8.041 3.832 2.245 12.057 4.7 19.976 5.963 3.577.571 14.255.365 18.706-.36zm-86.835-314.539c-1.515-.317-4.057-1.724-5.389-2.984-4.728-4.472-4.929-11.938-.439-16.358 5.565-5.478 14.479-3.702 17.936 3.574.933 1.964.978 2.186.983 4.837.005 2.614-.049 2.892-.899 4.707-1.155 2.465-3.5 4.754-5.759 5.623-1.529.588-4.964.909-6.433.602zm98.068-3.782c-4.598-1.469-7.641-5.555-7.689-10.325-.088-8.802 9.568-14.069 16.993-9.27 4.578 2.959 6.263 9.059 3.84 13.9-2.465 4.925-8.021 7.332-13.144 5.695zm-375.662 178.53c2.045-1.257 4.825-6.129 6.837-11.982.998-2.903 1-2.922 1.007-7.276.003-2.401-.151-7.937-.343-12.303-.534-12.141-.532-22.837.005-25.166.874-3.797 3.127-6.951 5.954-8.337.941-.461 1.84-.648 3.47-.719 2.031-.089 2.329-.033 3.882.731 2.867 1.411 5.1 4.329 6.442 8.419.909 2.768 1.495 6.563 2.829 18.325.713 6.286 1.267 9.127 2.321 11.92 2.163 5.729 4.005 8.127 6.603 8.597 1.478.267 3.615-.847 4.666-2.434 1.259-1.901 1.627-3.504 3.509-15.305.964-6.043.994-7.74.518-29.369-.222-10.093-.312-11.623-.797-13.555-1.32-5.259-3.409-9.067-6.585-12.001-4.656-4.301-13.914-8.995-25.193-12.773-5.588-1.872-6.51-2.047-17.462-3.314-14.108-1.632-14.848-1.678-25.003-1.554-9.209.113-9.303.12-16.801 1.218l-10.319 1.661c-6.75 1.35-30.118 8.932-37.968 12.319-3.055 1.318-4.579 2.364-6.915 4.746-4.335 4.42-6.426 8.945-7.935 17.168-.843 4.596-.532 16.139.703 26.061l1.059 9.128c1.049 9.614 2.069 12.527 4.859 13.877 1.424.689 2.604.687 4.039-.007 2.418-1.171 4.471-5.101 6.624-12.679l.939-3.307.206-7.673c.195-7.276.249-7.858 1.034-11.245 1.672-7.205 2.841-9.908 5.957-13.764 1.465-1.813 3.451-3.433 4.209-3.433.218 0 .572-.175.786-.39.343-.343.535-.313 1.606.257.669.356 1.217.567 1.217.468 0-.598 2.519 2.419 4.415 5.288 4.213 6.376 4.397 7.109 6.046 24.142 1.314 13.575 1.856 17.034 3.814 24.342l1.976 7.823c.823 3.599 1.829 5.873 3.206 7.25 2.812 2.812 6.373 2.612 8.495-.478 1.75-2.548 2.662-6.661 3.386-15.275.227-2.702.658-6.631.957-8.731.83-5.823.911-9.16.384-15.726-.256-3.195-.402-6.824-.323-8.063.341-5.357 2.975-9.141 7.568-10.874 1.194-.45 1.896-.538 3.6-.447 3.334.177 5.756 1.684 7.908 4.922 1.809 2.721 2.671 5.644 3.331 11.289.99 8.472 2.735 19.766 3.98 25.767 1.317 6.348 5.15 15.545 8.357 20.055 2.221 3.122 4.493 3.911 6.938 2.408zm696.372-12.965c2.919-1.08 5.151-4.326 6.208-9.031.501-2.228.553-3.499.655-15.915.107-13.019.086-13.763-.598-21.167-.964-10.432-.755-13.347 1.238-17.274 1.565-3.084 4.42-5.46 7.534-6.271 2.025-.527 3.157-.504 5.113.105 4.341 1.351 7.993 6.402 9.295 12.855.53 2.627.835 5.75 1.435 14.687s1.209 12.381 3.588 20.286c1.514 5.032 2.499 7.237 3.988 8.928 2.488 2.826 5.365 3.234 7.531 1.068 1.663-1.663 2.145-3.501 2.628-10.023l1.211-15.629c.495-6.248.76-11.102.67-12.303-.168-2.264-.673-3.84-2.372-7.408-1.989-4.177-2.404-6.565-1.61-9.279 1.399-4.785 5.575-7.76 11.878-8.461 4.634-.515 8.534.737 11.256 3.615 2.445 2.585 3.072 4.501 5.941 18.141.817 3.883 1.884 8.246 2.372 9.695 1.103 3.276 3.031 7.048 4.392 8.595 2.348 2.667 5.29 2.724 7.191.139 2.303-3.131 4.704-13.356 4.704-20.033 0-2.65-.754-9.506-1.439-13.086-.727-3.798-3.781-12.478-6.068-17.241-1.822-3.797-6.209-11.113-7.836-13.067-1.53-1.838-3.142-3.06-6.123-4.643-3.083-1.637-5.95-2.739-8.648-3.327-3.017-.657-27.63-4.634-31.835-5.144-3.548-.43-22.329-1.211-30.657-1.274-5.955-.045-6.191-.015-19.447 2.48-12.093 2.277-16.548 3.41-23.283 5.924-9.645 3.6-17.539 9.204-21.485 15.251-1.527 2.339-3.294 6.26-4.693 10.413-2.644 7.846-2.818 11.461-1.048 21.829 1.516 8.88 3.354 16.595 5.484 23.019 4.176 12.591 6.523 16.264 11.354 17.767 3.382 1.052 5.761.355 7.258-2.128 1.584-2.627 1.65-4.449.88-24.238-.365-9.382-.323-15.292.125-17.404.74-3.494 2.632-5.868 5.913-7.423 1.666-.789 1.942-.837 4.81-.837 2.703 0 3.19.073 4.366.655 2.63 1.301 4.649 4.198 5.552 7.967.224.933.764 4.673 1.202 8.311.729 6.063 3.438 23.442 4.392 28.178 1.403 6.964 4.397 15.96 6.357 19.101 2.418 3.876 6.304 5.192 10.62 3.596z"/></svg>